<?xml version="1.0" standalone="no"?>
<!DOCTYPE svg PUBLIC "-//W3C//DTD SVG 20010904//EN"
 "http://www.w3.org/TR/2001/REC-SVG-20010904/DTD/svg10.dtd">
<svg version="1.0" xmlns="http://www.w3.org/2000/svg"
 width="500.000000pt" height="500.000000pt" viewBox="0 0 500.000000 500.000000"
 preserveAspectRatio="xMidYMid meet">
<metadata>
Created by potrace 1.11, written by Peter Selinger 2001-2013
</metadata>
<g transform="translate(0.000000,500.000000) scale(0.100000,-0.100000)"
fill="#000000" stroke="none">
<path d="M920 4609 c-369 -57 -657 -263 -815 -584 -74 -148 -98 -247 -99 -400
-1 -118 4 -175 23 -245 60 -230 233 -488 453 -677 44 -37 85 -73 91 -78 35
-30 193 -139 552 -380 220 -148 501 -337 625 -420 320 -216 1156 -778 1950
-1311 l215 -144 541 2 541 3 -486 647 c-267 356 -490 654 -496 662 -5 7 -35
47 -66 87 -30 41 -58 79 -61 84 -4 7 81 9 248 8 190 -1 252 2 247 10 -6 11
-1463 1952 -1547 2062 -21 28 -57 72 -80 100 -22 27 -50 61 -61 74 -49 60
-176 189 -241 245 -125 107 -250 170 -384 194 -94 17 -295 8 -372 -17 l-68
-22 -47 20 c-85 36 -176 61 -273 75 -104 16 -303 18 -390 5z"/>
</g>
</svg>
